<?xml version="1.0" encoding="utf-8"?>
<!-- Generator: Adobe Illustrator 21.1.0, SVG Export Plug-In . SVG Version: 6.00 Build 0)  -->
<svg version="1.1" id="图层_1" xmlns="http://www.w3.org/2000/svg" xmlns:xlink="http://www.w3.org/1999/xlink" x="0px" y="0px"
	 viewBox="0 0 200 200" style="enable-background:new 0 0 200 200;" xml:space="preserve">
<style type="text/css">
	.st0{fill:#09ce6e;}
</style>
<g>
	<path class="st0" d="M188.1,77.4h-16.3l-11-53.9c-1.8-8.9-9.6-15.2-18.6-15.2H58.4c-8.9-0.1-16.6,6-18.6,14.6L28.6,77.4H11.9
		c-3.1,0-6.2,1.2-8.4,3.5C1.2,83.2,0,86.2,0,89.3v70.4c0,1.6,0.6,3.1,1.7,4.2c1.1,1.1,2.6,1.7,4.2,1.7h27.2v20.1
		c0,1.6,0.6,3.1,1.7,4.2c1.1,1.1,2.6,1.7,4.2,1.7h20.5c1.6,0,3.2-0.7,4.3-1.9c1.1-1.2,1.7-2.8,1.6-4.4v-19.7h69.6v20.1
		c0,1.6,0.6,3.1,1.7,4.2c1.1,1.1,2.6,1.7,4.2,1.7h20.5c1.6,0,3.2-0.7,4.3-1.9c1.1-1.2,1.7-2.8,1.6-4.4v-19.7h20.7
		c3.2,0,6.3-1.3,8.6-3.6c2.2-2.3,3.4-5.5,3.3-8.7v-64C200,82.8,194.7,77.4,188.1,77.4z M51.5,25.3c0.7-3.3,3.5-5.7,6.9-5.7h83.9
		c3.3,0,6.2,2.4,6.9,5.7l10.4,50.9H40.9L51.5,25.3z M53.6,179.8H45v-14.1h8.7V179.8z M155.6,179.8h-8.7v-14.1h8.7V179.8z
		 M188.1,153.8h-24.8c-0.6-0.2-1.2-0.4-1.8-0.4H141c-0.6,0-1.2,0.2-1.8,0.4H61.4c-0.6-0.2-1.2-0.4-1.8-0.4H39
		c-0.6,0-1.2,0.2-1.8,0.4H12l0.5-65.6l175.7,1.2V153.8z"/>
	<path class="st0" d="M151.3,139.3c10,0,18-8.1,18-18c0-7.3-4.4-13.9-11.1-16.7c-6.7-2.8-14.5-1.2-19.7,3.9
		c-5.2,5.2-6.7,12.9-3.9,19.7C137.5,134.9,144,139.3,151.3,139.3z M151.3,115.5v-0.5c1.7,0,3.4,0.7,4.5,2c1.2,1.3,1.8,3,1.6,4.7
		c0,3.4-2.8,6.2-6.2,6.2c-3.4,0-6.2-2.8-6.2-6.2C145.2,118.3,147.9,115.5,151.3,115.5z"/>
	<path class="st0" d="M49.3,139.3c4.8,0,9.4-1.9,12.8-5.3c3.4-3.4,5.3-8,5.3-12.8c0-10-8.1-18-18-18s-18,8.1-18,18
		C31.2,131.2,39.3,139.3,49.3,139.3z M49.3,115.5v-0.5c1.7,0,3.4,0.7,4.5,2c1.2,1.3,1.8,3,1.6,4.7c0,3.4-2.8,6.2-6.2,6.2
		c-3.4,0-6.2-2.8-6.2-6.2C43.1,118.3,45.8,115.5,49.3,115.5z"/>
	
		<rect x="58.6" y="44.5" transform="matrix(0.7071 -0.7071 0.7071 0.7071 -11.1592 73.941)" class="st0" width="50.1" height="11.9"/>
	<polygon class="st0" points="79.9,31.7 71.5,23.3 54.1,40.7 62.5,49.1 	"/>
</g>
</svg>
