<?xml version="1.0" encoding="utf-8"?>
<!-- Generator: Adobe Illustrator 21.1.0, SVG Export Plug-In . SVG Version: 6.00 Build 0)  -->
<svg version="1.1" id="图层_1" xmlns="http://www.w3.org/2000/svg" xmlns:xlink="http://www.w3.org/1999/xlink" x="0px" y="0px"
	 viewBox="0 0 200 200" style="enable-background:new 0 0 200 200;" xml:space="preserve">
<style type="text/css">
	.st0{fill:#312872;}
</style>
<path class="st0" d="M197.3,66c-4.3-4.9-12.5-5-20.8,0.4c-7.9,5.1-15.5,10.8-22.9,16.9l-25.1-30.1c13.5-0.3,24.4-11.3,24.4-24.9
	c0-13.7-11.2-24.9-24.9-24.9c-6.7,0-12.9,2.6-17.6,7.3c-4.7,4.7-7.3,11-7.3,17.6c0,7.5,3.4,14.3,8.7,18.9H64.6l-2.8,3.6
	c-1,1.3-24.1,31.3-29.5,41.6c-3.5,6.4-2.1,14.2,3.5,19.2l0.4,0.3c5.4,4.1,13.3,2.9,19.6-3.4c8.7-8.4,18.7-18.5,23.7-23.7l-21.9,43.8
	c-5.2,2.9-33.3,18.8-42.8,24.5c-2,1.1-3.7,2.5-5.2,4.2L0,168.6l14.3,3.8c7.3,1.9,15.4,1.4,22-1.3c10.3-3.5,20.5-7.5,30.4-12.1
	l30.9-24.4l32.5,16.2c-5.9,8.4-11.3,17.3-16.1,26.3l-0.9,1.6l-0.2,1.9c-0.4,4.1,0.6,8.3,2.9,11.8l2.7,4.1l5.1,0.1
	c5.5,0,11.9-4.5,19.6-13.8c10.3-12.4,17.8-22,21.4-26.6l5.4-6.9l-50.1-43.9l3.6-5.8l36.5,22.8l9.2-9.1c7.9-7.8,19.9-19.7,23.8-23.9
	C201.4,80.4,201.5,70.8,197.3,66z M116.6,16.9c3-3,7.1-4.7,11.3-4.7c8.8,0,16,7.2,16,16s-7.2,16-16,16s-16-7.2-16-16
	C111.9,23.9,113.5,19.9,116.6,16.9z M186.6,83.4c-3.8,4.2-15.7,15.9-23.6,23.7l-4.2,4.1l-33.2-20.7c-0.9-0.6-2-0.9-3.1-0.9l-1.3,0.1
	c-1.5,0.4-2.8,1.3-3.6,2.6L111,103c-1.5,2.4-1,5.5,1.1,7.4l45.8,40.1l-0.3,0.3c-3.6,4.6-11,14.1-21.2,26.4
	c-8.6,10.3-12.4,10.6-12.8,10.6l-0.3,0l-0.1-0.2c-1.2-1.8-1.7-4-1.5-6.1l0.1-0.2c5.2-9.8,11.1-19.3,17.7-28.5c0.9-1.4,1.2-3,0.7-4.6
	c-0.4-1.6-1.5-3-3-3.7l-37.4-18.7c-2-1-4.4-0.8-6.2,0.6L63,151l0,0c-9.6,4.4-19.5,8.3-29.7,11.8c-5.3,2.1-11.2,2.5-16.7,1l-0.7-0.2
	l0.5-0.6c0.8-0.9,1.7-1.7,2.9-2.3c10.6-6.3,43.3-24.7,43.6-24.9c1-0.6,1.8-1.4,2.3-2.4L90,83.7l0.2-0.5c0.6-1.7,0.4-3.6-0.6-5.1
	c-1-1.6-2.7-2.6-4.8-2.7h-6.1c-1.5,0-3,0.6-4.3,1.9c-4.3,4.4-15.3,15.6-24.8,24.8c-1.7,1.6-5.6,4.5-8.2,2.6
	c-2.3-2.1-2.9-5.5-1.4-8.3c3.8-7.1,19.3-28.1,28.8-40.4l50.5-0.2l29.4,35.3c1,1.2,2.4,2,3.6,2.1l0.8,0.1c1.4,0,2.8-0.5,3.8-1.5
	c7.6-6.6,15.8-12.7,24.2-18.2c4.1-2.6,8.1-3.4,9.3-2C191.7,73,191.6,77.9,186.6,83.4z"/>
</svg>
