<?xml version="1.0" encoding="utf-8"?>
<!-- Generator: Adobe Illustrator 21.1.0, SVG Export Plug-In . SVG Version: 6.00 Build 0)  -->
<svg version="1.1" id="图层_1" xmlns="http://www.w3.org/2000/svg" xmlns:xlink="http://www.w3.org/1999/xlink" x="0px" y="0px"
	 viewBox="0 0 200 200" style="enable-background:new 0 0 200 200;" xml:space="preserve">
<style type="text/css">
	.st0{fill:#4C4C4C;}
</style>
<path class="st0" d="M177.6,103.5c-5.2,0-9.4,4.2-9.5,9.4c0,37.5-30.5,68.1-68.1,68.1c-37.5,0-68.1-30.5-68.1-68.1
	c0-36.6,29-66.5,65.2-68L82.6,59.9c-2.7,2.7-3.4,6.8-1.9,10.3c1.5,3.5,4.9,5.8,8.8,5.8c2.6,0,5.1-1,6.9-2.9l26-26.9
	c2.3-2.4,3.6-5.6,3.6-8.9c0-3.3-1.4-6.5-3.8-8.8L95,2.6C91.2-1,85.3-0.8,81.6,2.9c-3.6,3.8-3.6,9.7,0.1,13.4l10.1,9.8
	c-44.3,4.1-79.1,41.4-79.1,86.8c0,48.1,39.1,87.2,87.2,87.2c48.1,0,87.1-39.1,87.1-87.2C187.1,107.6,182.8,103.5,177.6,103.5z"/>
</svg>
