<?xml version="1.0" encoding="utf-8"?>
<!-- Generator: Adobe Illustrator 21.1.0, SVG Export Plug-In . SVG Version: 6.00 Build 0)  -->
<svg version="1.1" id="图层_1" xmlns="http://www.w3.org/2000/svg" xmlns:xlink="http://www.w3.org/1999/xlink" x="0px" y="0px"
	 viewBox="0 0 200 200" style="enable-background:new 0 0 200 200;" xml:space="preserve">
<style type="text/css">
	.st0{fill:#4C4C4C;}
	.st1{fill:#09CE6E;}
</style>
<g>
	<path class="st0" d="M100.1,176.9h-0.3c-1.4,0-2.6-0.7-3.4-1.8C84.2,157,74,139.3,66.1,122.3c-6.3-13.6-11.2-26.8-14.4-39.1
		C46.2,62,47.3,50.5,47.4,50c0-0.1,0-0.2,0.1-0.4c0.7-13.3,6.4-25.7,16-35C73.3,5.2,86.2,0,99.8,0h0.3c13.7,0,26.6,5.2,36.4,14.7
		c9.6,9.3,15.3,21.7,16,35c0,0.1,0.1,0.2,0.1,0.4c0.1,0.5,1.2,12-4.4,33.2c-3.2,12.3-8.1,25.4-14.4,39.1
		c-7.9,16.9-18.1,34.7-30.3,52.8C102.8,176.2,101.5,176.9,100.1,176.9L100.1,176.9z M55.6,51.4c-0.1,2.3-0.4,12.8,4.3,30.4
		c4.7,17.7,15.5,46.4,40,83.7c24.5-37.3,35.3-65.9,40-83.7c4.7-17.6,4.5-28.1,4.3-30.4c-0.1-0.2-0.1-0.5-0.1-0.7
		c-0.5-11.4-5.3-22.1-13.5-30c-8.2-8-19.1-12.3-30.6-12.3h-0.3c-11.5,0-22.4,4.4-30.6,12.3c-8.2,7.9-13.1,18.6-13.5,30
		C55.7,50.9,55.6,51.2,55.6,51.4L55.6,51.4z M55.6,51.4"/>
	<path class="st1" d="M100,85.2c-17.1,0-31-13.9-31-31s13.9-31,31-31c17.1,0,31,13.9,31,31S117.1,85.2,100,85.2L100,85.2z M100,31.5
		c-12.5,0-22.7,10.2-22.7,22.7c0,12.5,10.2,22.7,22.7,22.7c12.5,0,22.7-10.2,22.7-22.7C122.7,41.6,112.5,31.5,100,31.5L100,31.5z
		 M100,31.5"/>
	<path class="st0" d="M100,200c-18.9,0-36.8-1.8-50.3-5.1c-6.8-1.6-12.2-3.6-16-5.8c-5-2.9-7.5-6.3-7.5-10.2
		c0-4.9,4.1-9.1,12.2-12.4c6.4-2.7,15.5-4.8,26.2-6.4c2.3-0.3,4.4,1.3,4.7,3.5c0.3,2.3-1.3,4.4-3.5,4.7
		c-25.8,3.6-31.2,9.6-31.2,10.6c0,0.2,0.6,1.4,3.4,3c3.1,1.8,7.9,3.5,13.9,4.9c12.8,3.1,30,4.9,48.2,4.9c18.3,0,35.4-1.7,48.3-4.8
		c5.9-1.4,10.7-3.2,13.9-4.9c2.8-1.6,3.4-2.8,3.4-3c0-1-5.4-6.9-31.2-10.6c-2.3-0.3-3.8-2.4-3.5-4.7c0.3-2.3,2.4-3.8,4.7-3.5
		c10.7,1.5,19.8,3.7,26.2,6.4c8.1,3.3,12.2,7.5,12.2,12.4c0,3.9-2.5,7.3-7.5,10.2c-3.8,2.2-9.2,4.2-16,5.8
		C136.8,198.2,118.9,200,100,200L100,200z M100,200"/>
</g>
</svg>
