<?xml version="1.0" encoding="utf-8"?>
<!-- Generator: Adobe Illustrator 21.1.0, SVG Export Plug-In . SVG Version: 6.00 Build 0)  -->
<svg version="1.1" id="图层_1" xmlns="http://www.w3.org/2000/svg" xmlns:xlink="http://www.w3.org/1999/xlink" x="0px" y="0px"
	 viewBox="0 0 200 200" style="enable-background:new 0 0 200 200;" xml:space="preserve">
<style type="text/css">
	.st0{fill:#FFFFFF;}
</style>
<path class="st0" d="M23.3,76.7C10.4,76.7,0,87.1,0,100c0,12.9,10.4,23.3,23.3,23.3s23.3-10.4,23.3-23.3
	C46.6,87.1,36.2,76.7,23.3,76.7L23.3,76.7z M97.7,76.7c-12.9,0-23.3,10.4-23.3,23.3c0,12.9,10.4,23.3,23.3,23.3
	c12.9,0,23.3-10.4,23.3-23.3C121,87.1,110.6,76.7,97.7,76.7L97.7,76.7z M176.7,76.7c-12.9,0-23.3,10.4-23.3,23.3
	c0,12.9,10.4,23.3,23.3,23.3c12.9,0,23.3-10.4,23.3-23.3C200,87.1,189.6,76.7,176.7,76.7L176.7,76.7z M176.7,76.7"/>
</svg>
