<?xml version="1.0" encoding="utf-8"?>
<!-- Generator: Adobe Illustrator 21.1.0, SVG Export Plug-In . SVG Version: 6.00 Build 0)  -->
<svg version="1.1" id="图层_1" xmlns="http://www.w3.org/2000/svg" xmlns:xlink="http://www.w3.org/1999/xlink" x="0px" y="0px"
	 viewBox="0 0 200 200" style="enable-background:new 0 0 200 200;" xml:space="preserve">
<style type="text/css">
	.st0{fill:#09ce6e;}
</style>
<g>
	<path class="st0" d="M99.9,160.7c-33.5,0-60.7-27.2-60.7-60.7c0-33.5,27.2-60.7,60.7-60.7c33.5,0,60.7,27.2,60.7,60.7
		S133.5,160.7,99.9,160.7 M99.9,48c-28.7,0-52,23.3-52,52s23.3,52,52,52s52-23.3,52-52C152,71.4,128.6,48,99.9,48 M200,100.1
		c0,3.3-5.5,6-12.3,6h-8.1c-6.8,0-12.3-2.7-12.3-6c0-3.3,5.5-6,12.3-6h8.1C194.5,94.1,200,96.7,200,100.1 M32.7,100.1
		c0,3.3-5.5,6-12.3,6h-8.1c-6.8,0-12.3-2.7-12.3-6c0-3.3,5.5-6,12.3-6h8.1C27.2,94.1,32.7,96.7,32.7,100.1 M186.6,50
		c1.7,2.8-1.8,8-7.7,11.4l-7,4c-5.9,3.4-12.1,3.9-13.7,1c-1.7-2.8,1.8-8,7.7-11.4l7-4C178.8,47.6,184.9,47.2,186.6,50 M41.7,133.7
		c1.7,2.8-1.8,8-7.7,11.4l-7,4c-5.9,3.4-12.1,3.9-13.7,1c-1.7-2.8,1.8-8,7.7-11.4l7-4C33.9,131.3,40.1,130.8,41.7,133.7 M150,13.4
		c2.8,1.7,2.4,7.8-1,13.7l-4,7c-3.4,5.9-8.5,9.3-11.4,7.7c-2.8-1.7-2.4-7.8,1-13.7l4-7C142,15.2,147.1,11.8,150,13.4 M66.3,158.3
		c2.8,1.7,2.4,7.8-1,13.7l-4,7c-3.4,5.9-8.5,9.3-11.4,7.7c-2.8-1.7-2.4-7.8,1-13.7l4-7C58.4,160.1,63.5,156.6,66.3,158.3 M99.9,0
		c3.3,0,6,5.5,6,12.3v8.1c0,6.8-2.7,12.3-6,12.3c-3.3,0-6-5.5-6-12.3v-8.1C93.9,5.5,96.7,0,99.9,0 M99.9,167.3c3.3,0,6,5.5,6,12.3
		v8.1c0,6.8-2.7,12.3-6,12.3c-3.3,0-6-5.5-6-12.3v-8.1C93.9,172.8,96.7,167.3,99.9,167.3 M49.9,13.4c2.8-1.7,8,1.8,11.4,7.7l4,7
		c3.4,5.9,3.9,12.1,1,13.7c-2.8,1.7-8-1.8-11.4-7.7l-4-7C47.5,21.2,47.1,15.1,49.9,13.4 M133.5,158.3c2.8-1.7,8,1.8,11.4,7.7l4,7
		c3.4,5.9,3.9,12.1,1,13.7c-2.8,1.7-8-1.8-11.4-7.7l-4-7C131.2,166.1,130.7,159.9,133.5,158.3 M13.3,50c1.7-2.8,7.8-2.4,13.7,1l7,4
		c5.9,3.4,9.3,8.5,7.7,11.4c-1.7,2.8-7.8,2.4-13.7-1l-7-4C15.1,58,11.6,52.9,13.3,50 M158.2,133.7c1.7-2.8,7.8-2.4,13.7,1l7,4
		c5.9,3.4,9.3,8.5,7.7,11.4c-1.7,2.8-7.8,2.4-13.7-1l-7-4C159.9,141.6,156.5,136.5,158.2,133.7"/>
</g>
</svg>
