<?xml version="1.0" encoding="utf-8"?>
<!-- Generator: Adobe Illustrator 21.1.0, SVG Export Plug-In . SVG Version: 6.00 Build 0)  -->
<svg version="1.1" id="图层_1" xmlns="http://www.w3.org/2000/svg" xmlns:xlink="http://www.w3.org/1999/xlink" x="0px" y="0px"
	 viewBox="0 0 200 200" style="enable-background:new 0 0 200 200;" xml:space="preserve">
<style type="text/css">
	.st0{fill:#312872;}
</style>
<path class="st0" d="M176.3,0H23.7C21.1,0,19,2.1,19,4.7v171.5c0,0,0,0,0,0c0,0,0,0,0,0v18.9c0,2.6,2.1,4.8,4.7,4.8h56.5
	c2.5,0,4.5-1.9,4.7-4.3l8-89.3c0.5-3.5,3.5-6.2,7.1-6.2c3.6,0,6.6,2.7,7.1,6.2l8,89.3c0.2,2.4,2.3,4.3,4.7,4.3h56.5
	c2.6,0,4.8-2.1,4.8-4.8V4.7C181.1,2.1,178.9,0,176.3,0L176.3,0z M171.6,60.9c-9.4-6.2-15.9-15.9-18.3-26.9h18.3V60.9z M171.6,9.5v15
	H28.5v-15H171.6z M111.5,54.9c0,0.7-0.5,1.2-1.2,1.2h-6V34h7.2V54.9z M28.5,34h18.3c-2.3,11-8.9,20.7-18.3,26.9V34z M28.5,190.5
	v-9.4h48.3l-0.8,9.4H28.5z M100,90.7c-8.4,0-15.5,6.2-16.5,14.5c0,0,0,0.1,0,0.1c0,0,0,0.1,0,0.1l-5.9,66.1H28.5V71.9
	C43.3,64.3,53.6,50.3,56.4,34h38.4v48.1c0,2.6,2.1,4.7,4.7,4.7c2.6,0,4.8-2.1,4.8-4.7V65.6h6c5.9,0,10.7-4.8,10.7-10.7V34h22.6
	c2.8,16.3,13.1,30.4,27.9,37.9v99.7h-49.1l-5.9-66.1c0,0,0-0.1,0-0.1c0,0,0-0.1,0-0.1C115.5,97,108.4,90.7,100,90.7L100,90.7z
	 M124.1,190.5l-0.8-9.4h48.3v9.4H124.1z M124.1,190.5"/>
</svg>
