<?xml version="1.0" encoding="utf-8"?>
<!-- Generator: Adobe Illustrator 21.1.0, SVG Export Plug-In . SVG Version: 6.00 Build 0)  -->
<svg version="1.1" id="图层_1" xmlns="http://www.w3.org/2000/svg" xmlns:xlink="http://www.w3.org/1999/xlink" x="0px" y="0px"
	 viewBox="0 0 200 200" style="enable-background:new 0 0 200 200;" xml:space="preserve">
<style type="text/css">
	.st0{fill:#4C4C4C;}
</style>
<g>
	<path class="st0" d="M21.7,118.7c-4.2,0-7.6,3.3-7.6,7.3c0,4,3.4,7.3,7.6,7.3c4.2,0,7.6-3.3,7.6-7.3
		C29.4,122,25.9,118.7,21.7,118.7L21.7,118.7z"/>
	<path class="st0" d="M36.1,33c4.2,0,7.6-3.3,7.6-7.3c0-4-3.4-7.3-7.6-7.3c-4.2,0-7.6,3.3-7.6,7.3C28.5,29.7,31.9,33,36.1,33
		L36.1,33z"/>
	<path class="st0" d="M172.2,44.6c3.4,0,6.1-2.6,6.1-5.8c0-3.2-2.7-5.8-6.1-5.8c-3.4,0-6.1,2.6-6.1,5.8
		C166.1,42,168.8,44.6,172.2,44.6L172.2,44.6z"/>
	<path class="st0" d="M124.8,59.2c5.9,0,10.7-4.6,10.7-10.2c0-5.6-4.8-10.2-10.7-10.2c-5.9,0-10.7,4.6-10.7,10.2
		C114.1,54.6,118.9,59.2,124.8,59.2L124.8,59.2z"/>
	<path class="st0" d="M80.5,44.6c-5.1,0-9.2,3.9-9.2,8.7c0,4.8,4.1,8.7,9.2,8.8c5.1,0,9.2-3.9,9.2-8.8
		C89.6,48.6,85.5,44.6,80.5,44.6L80.5,44.6z"/>
	<path class="st0" d="M160.5,123.8c-7.1,0-12.8,5.5-12.8,12.2c0,6.8,5.8,12.2,12.8,12.2c7.1,0,12.8-5.5,12.8-12.2
		C173.4,129.3,167.6,123.8,160.5,123.8L160.5,123.8z"/>
	<path class="st0" d="M108,135c-3.4,0-6.1,2.6-6.1,5.8c0,3.2,2.7,5.8,6.1,5.8c3.4,0,6.1-2.6,6.1-5.8C114.1,137.6,111.3,135,108,135
		L108,135z"/>
	<path class="st0" d="M148.8,181.6c-21.2,0-36-8.4-37-9c-61.3-37.4-99.7-0.9-101.3,0.7c-2.4,2.3-6.2,2.4-8.6,0.1
		c-1.2-1-1.8-2.5-1.9-4.1c0-1.6,0.6-3.1,1.7-4.2c0.5-0.5,46.7-45.2,116.6-2.5c1.3,0.7,34.7,19.4,72-6.5c1.3-0.9,3-1.3,4.6-1.1
		c1.6,0.2,3,1.1,4,2.3c2,2.6,1.4,6.2-1.3,8.1C179.9,177.9,162.9,181.6,148.8,181.6L148.8,181.6z"/>
	<path class="st0" d="M148.8,181.6"/>
	<path class="st0" d="M11.6,67.2h18.1c10.2,0,15.3,4.3,15.3,13c0,8.8-5.2,13.2-15.3,13.2h-13v18.1h-5.1V67.2z M16.7,71.6V89h12.7
		c3.6,0,6.2-0.7,7.9-2.2c1.7-1.4,2.5-3.6,2.5-6.6c0-3-0.9-5.2-2.6-6.5c-1.7-1.5-4.3-2.2-7.9-2.2H16.7z M51.5,67.2v44.3h5.1V76.3h0.2
		l15.3,35.3h4.6L92,76.3h0.2v35.3h5.1V67.2H91L74.5,105h-0.2L57.8,67.2H51.5z M121,66.3c-4.5,0-8.1,1.5-10.9,4.5
		c-2.7,2.9-4.2,6.9-4.2,11.9h5.1c0.1-3.9,1-6.9,2.7-8.9c1.6-2.1,4-3.1,7-3.1c2.9,0,5.2,0.7,6.8,2.2c1.6,1.5,2.4,3.5,2.4,6.3
		c0,2.9-1.2,5.5-3.4,7.9c-1.2,1.2-3.5,3-7,5.5c-4.7,3.2-7.9,5.9-9.6,7.9c-3,3.3-4.4,7-4.4,11h29.6V107h-23.3c0.8-3,4-6.4,9.7-10.2
		c4.6-3.1,7.6-5.5,9.2-7.1c2.9-3.1,4.3-6.6,4.3-10.4c0-3.8-1.4-7-4-9.4C128.5,67.5,125.1,66.3,121,66.3L121,66.3z M147.2,104.1
		c-1.1,0-2,0.4-2.7,1.1c-0.7,0.7-1.1,1.6-1.1,2.7c0,1.1,0.4,1.9,1.1,2.7c0.7,0.7,1.6,1.1,2.7,1.1c1,0,1.9-0.4,2.7-1.1
		c0.7-0.7,1.1-1.6,1.1-2.7c0-1-0.4-2-1.1-2.7C149.2,104.5,148.2,104.1,147.2,104.1L147.2,104.1z M161.9,67.2l-2.4,24.5h4.8
		c0.9-1.7,2.3-3.1,4-4c1.7-0.9,3.5-1.4,5.6-1.4c3.2,0,5.8,0.9,7.6,2.9c1.9,1.9,2.9,4.7,2.9,8.2c0,3.1-1.1,5.6-3,7.6
		c-2.1,2-4.6,3-7.7,3c-2.7,0-5-0.7-6.8-2c-2-1.5-3.1-3.7-3.4-6.5h-5c0.3,4,2,7.3,5.1,9.6c2.7,2.1,6.1,3.2,10,3.2c4.3,0,8.1-1.4,11-4
		c3.2-2.9,4.8-6.5,4.8-11c0-4.8-1.4-8.5-4-11.2c-2.6-2.7-6-4-10.2-4c-2.1,0-3.9,0.3-5.6,1.1c-1.9,0.7-3.5,1.8-4.8,3.4h-0.2l1.5-14.8
		h21.6v-4.5L161.9,67.2L161.9,67.2z M161.9,67.2"/>
</g>
</svg>
