<?xml version="1.0" encoding="utf-8"?>
<!-- Generator: Adobe Illustrator 21.1.0, SVG Export Plug-In . SVG Version: 6.00 Build 0)  -->
<svg version="1.1" id="图层_1" xmlns="http://www.w3.org/2000/svg" xmlns:xlink="http://www.w3.org/1999/xlink" x="0px" y="0px"
	 viewBox="0 0 200 200" style="enable-background:new 0 0 200 200;" xml:space="preserve">
<style type="text/css">
	.st0{fill:#09CE6E;}
</style>
<g>
	<path class="st0" d="M194.1,62.3c0-31.6-25.7-57.3-57.4-57.3c-17.2,0-32.6,7.6-43.2,19.5l0.1,0L23.7,96.3l0,0
		c-10.9,10.4-17.7,25.1-17.7,41.4c0,31.6,25.7,57.3,57.4,57.3c17.7,0,33.5-8,44-20.5l0,0l69.5-71.4l0.1,0c1.1-1.1,2.1-2.2,3.1-3.3
		l0.3-0.3l0,0C188.8,89.5,194.1,76.5,194.1,62.3L194.1,62.3z M101.4,170.4L101.4,170.4c-9.1,10.8-22.8,17.6-38.1,17.6
		c-27.8,0-50.3-22.5-50.3-50.2c0-14.6,6.2-27.7,16.2-36.9l0,0l32.6-33.5l71.1,70.7L101.4,170.4z M174.8,95l-37,38L66.8,62.2
		l35.8-36.7l-0.1-0.1c9-8.3,21-13.4,34.2-13.4c27.8,0,50.3,22.5,50.3,50.2C187,74.8,182.4,86.2,174.8,95L174.8,95z M174.8,95"/>
	<path class="st0" d="M165.2,32.2c-6.9-6.4-16-10.5-26.1-11.2c-13.8-0.8-26.5,5.1-34.8,14.9L87.4,53.6l0,0c-0.6,0.7-1,1.6-1,2.6
		c0,2.1,1.7,3.8,3.8,3.8c1.1,0,2-0.4,2.7-1.1l0,0l16.8-17.4l0.1,0c0.2-0.3,0.4-0.5,0.7-0.8l0.4-0.4l0,0c6.8-7.6,16.9-12.2,27.9-11.5
		c8.4,0.5,16,4,21.7,9.4l0,0c0.7,0.6,1.5,1,2.5,1c2.1,0,3.8-1.7,3.8-3.8C166.6,34,166,32.9,165.2,32.2L165.2,32.2z M165.2,32.2"/>
</g>
</svg>
